<?xml version="1.0" encoding="UTF-8"?>
<svg xmlns="http://www.w3.org/2000/svg" xmlns:xlink="http://www.w3.org/1999/xlink" width="144pt" height="144pt" viewBox="0 0 144 144" version="1.1">
<g id="surface1">
<path style=" stroke:none;fill-rule:nonzero;fill:rgb(0.392157%,1.568627%,41.960784%);fill-opacity:1;" d="M 77.765625 4.027344 C 75.683594 5.066406 48.925781 31.910156 48.113281 33.792969 C 47.324219 35.566406 47.296875 38.296875 48.054688 39.957031 C 48.757812 41.503906 50.726562 43.5 52.277344 44.175781 C 54.105469 44.992188 56.75 44.933594 58.605469 44.007812 L 60.070312 43.273438 L 63.390625 46.59375 L 62.546875 47.691406 C 60.265625 50.5625 60.179688 52.335938 62.066406 56.808594 C 63.023438 59.117188 63.585938 60.070312 64.289062 60.578125 C 64.769531 60.972656 65.332031 61.28125 65.527344 61.28125 C 65.722656 61.28125 65.835938 61.421875 65.78125 61.5625 C 65.722656 61.730469 63.445312 64.574219 60.660156 67.894531 L 55.652344 73.886719 L 54.808594 73.605469 C 53.625 73.183594 50.953125 73.492188 49.628906 74.167969 C 46.59375 75.714844 44.902344 79.683594 45.917969 82.863281 C 45.972656 83.003906 44.933594 84.101562 43.609375 85.335938 C 40.851562 87.898438 40.402344 88.574219 40.65625 89.726562 C 40.878906 90.738281 41.78125 91.386719 42.933594 91.386719 C 43.667969 91.386719 44.285156 90.964844 46.28125 89.109375 L 48.730469 86.828125 L 53.738281 91.78125 L 53.0625 92.511719 C 52.699219 92.90625 43.835938 102.527344 33.339844 113.894531 C 22.847656 125.261719 13.84375 134.882812 13.308594 135.277344 C 12.605469 135.785156 11.875 135.980469 10.605469 136.066406 C 8.328125 136.207031 6.722656 135.390625 5.429688 133.476562 C 4.640625 132.324219 4.5 131.875 4.5 130.46875 C 4.5 129.511719 4.699219 128.414062 4.980469 127.820312 C 5.289062 127.148438 10.183594 122.449219 19.246094 114.09375 C 38.6875 96.167969 37.703125 97.15625 37.703125 95.859375 C 37.703125 94.144531 36.042969 93.160156 34.523438 93.976562 C 33.453125 94.539062 2.136719 123.65625 1.492188 124.671875 C 0.335938 126.5 -0.0859375 128.328125 0.0546875 131 C 0.140625 133.113281 0.308594 133.703125 1.125 135.222656 C 2.898438 138.542969 5.824219 140.398438 9.59375 140.566406 C 12.125 140.707031 14.179688 140.171875 15.980469 138.992188 C 16.628906 138.542969 19.835938 135.277344 23.097656 131.734375 C 26.363281 128.1875 29.316406 125.007812 29.65625 124.644531 L 30.273438 124.023438 L 31.175781 126.246094 C 33.367188 131.5625 35.027344 133.027344 38.882812 133.027344 L 40.992188 133.027344 L 41.191406 134.460938 C 41.304688 135.277344 41.640625 136.402344 41.921875 136.964844 C 42.625 138.34375 44.425781 139.890625 45.832031 140.285156 C 46.621094 140.539062 58.804688 140.625 92.875 140.625 L 138.847656 140.625 L 140.253906 139.949219 C 142.84375 138.765625 144.054688 136.742188 144.054688 133.644531 C 144.054688 131.984375 143.941406 131.535156 143.152344 130.214844 C 141.859375 128.101562 140.199219 127.089844 137.636719 126.894531 L 135.695312 126.78125 L 134.742188 124.8125 C 134.207031 123.714844 133.53125 122.644531 133.222656 122.449219 C 132.378906 121.828125 131.167969 121.96875 130.40625 122.757812 C 129.621094 123.546875 129.535156 124.445312 130.097656 125.851562 L 130.519531 126.835938 L 88.597656 126.835938 C 65.554688 126.835938 46.621094 126.867188 46.507812 126.894531 C 46.113281 126.976562 44.734375 123.828125 44.144531 121.546875 C 43.777344 120.226562 43.496094 118.003906 43.414062 115.808594 L 43.242188 112.207031 L 63.953125 112.152344 C 83.84375 112.066406 84.660156 112.039062 85.222656 111.53125 C 86.011719 110.800781 86.039062 109.054688 85.25 108.269531 C 84.6875 107.707031 84.320312 107.707031 64.964844 107.707031 L 45.269531 107.707031 L 47.746094 105.03125 L 50.222656 102.359375 L 90.425781 102.359375 C 128.578125 102.359375 130.605469 102.386719 130.40625 102.839844 C 130.265625 103.121094 129.84375 104.300781 129.421875 105.453125 L 128.636719 107.566406 L 114.285156 107.648438 L 99.910156 107.707031 L 99.347656 108.4375 C 98.558594 109.421875 98.613281 110.320312 99.429688 111.277344 L 100.105469 112.066406 L 114.003906 112.152344 L 127.875 112.234375 L 127.789062 113.699219 C 127.648438 115.695312 128.410156 116.707031 129.984375 116.707031 C 131.644531 116.707031 132.125 116.035156 132.347656 113.359375 C 132.601562 110.320312 133.445312 107.113281 134.710938 104.609375 L 135.753906 102.5 L 137.722656 102.332031 C 139.945312 102.164062 140.957031 101.710938 142.28125 100.332031 C 143.519531 99.066406 144.054688 97.632812 144.054688 95.605469 C 144.054688 92.792969 142.785156 90.683594 140.253906 89.332031 C 139.15625 88.714844 138.875 88.714844 125.230469 88.628906 L 111.304688 88.546875 L 123.851562 75.96875 C 137.835938 61.957031 137.496094 62.351562 137.246094 58.945312 C 137.074219 56.921875 136.570312 55.824219 135.132812 54.21875 C 132.769531 51.632812 128.945312 50.871094 125.960938 52.417969 L 124.527344 53.152344 L 122.867188 51.460938 L 121.179688 49.800781 L 122.332031 48.453125 C 124.472656 46.03125 124.554688 43.921875 122.699219 39.617188 C 121.460938 36.804688 120.785156 35.875 119.433594 35.199219 C 118.984375 34.945312 117.832031 34.019531 116.875 33.117188 C 114.90625 31.261719 114.089844 30.953125 112.878906 31.570312 C 111.332031 32.359375 111.246094 33.933594 112.683594 35.398438 L 113.667969 36.382812 L 80.609375 69.441406 L 75.824219 64.660156 L 71.042969 59.875 L 104.074219 26.84375 L 105.03125 27.746094 C 106.238281 28.925781 107.730469 29.011719 108.574219 27.914062 C 109.617188 26.589844 109.222656 25.382812 107.054688 23.300781 C 106.324219 22.597656 105.59375 21.640625 105.367188 21.1875 C 104.777344 19.78125 103.539062 18.882812 100.5 17.699219 C 96.335938 16.039062 94.535156 16.179688 91.863281 18.375 L 90.679688 19.332031 L 89.046875 17.671875 L 87.417969 16.039062 L 88.175781 14.550781 C 90.089844 10.667969 88.234375 5.769531 84.125 3.914062 C 82.269531 3.070312 79.59375 3.125 77.765625 4.027344 Z M 83.308594 8.921875 C 84.238281 9.851562 84.40625 10.1875 84.40625 11.230469 L 84.40625 12.46875 L 70.703125 26.195312 C 61.054688 35.820312 56.722656 39.984375 56.128906 40.152344 C 54.246094 40.660156 52.050781 38.828125 52.050781 36.71875 L 52.050781 35.539062 L 65.921875 21.695312 L 79.765625 7.824219 L 81 7.824219 C 82.042969 7.824219 82.378906 7.992188 83.308594 8.921875 Z M 85.898438 20.992188 L 87.5 22.597656 L 77.148438 32.949219 L 66.820312 43.273438 L 63.445312 39.898438 L 73.714844 29.628906 C 79.371094 23.972656 84.039062 19.359375 84.125 19.359375 C 84.210938 19.359375 84.996094 20.089844 85.898438 20.992188 Z M 97.65625 21.441406 C 98.191406 21.667969 99.234375 22.117188 99.992188 22.457031 L 101.398438 23.046875 L 84.40625 40.039062 C 75.035156 49.410156 67.300781 57.0625 67.214844 57.0625 C 66.992188 57.0625 65.273438 52.644531 65.273438 52.054688 C 65.273438 51.433594 95.660156 21.046875 96.25 21.046875 C 96.503906 21.046875 97.152344 21.21875 97.65625 21.441406 Z M 118.648438 41.757812 C 119.152344 42.964844 119.546875 44.175781 119.574219 44.402344 C 119.574219 44.964844 89.160156 75.351562 88.570312 75.351562 C 88.121094 75.351562 86.855469 74.898438 84.292969 73.800781 L 83.195312 73.324219 L 100.191406 56.332031 C 109.53125 46.988281 117.296875 39.363281 117.464844 39.421875 C 117.605469 39.476562 118.140625 40.519531 118.648438 41.757812 Z M 119.714844 54.8125 L 121.402344 56.5 L 111.050781 66.851562 L 100.726562 77.179688 L 98.980469 75.40625 L 97.207031 73.660156 L 107.476562 63.390625 C 113.132812 57.738281 117.804688 53.121094 117.886719 53.121094 C 117.972656 53.121094 118.789062 53.882812 119.714844 54.8125 Z M 131.5625 57.144531 C 132.320312 57.820312 132.601562 58.355469 132.714844 59.257812 L 132.882812 60.496094 L 118.84375 74.535156 C 105.3125 88.066406 104.746094 88.574219 103.734375 88.574219 C 102.949219 88.574219 102.441406 88.347656 101.597656 87.558594 C 100.273438 86.40625 99.9375 85.28125 100.554688 84.15625 C 100.78125 83.734375 107.082031 77.261719 114.566406 69.777344 L 128.15625 56.21875 L 129.367188 56.21875 C 130.324219 56.21875 130.746094 56.414062 131.5625 57.144531 Z M 70.507812 75.714844 C 67.554688 78.191406 64.878906 80.441406 64.570312 80.722656 C 63.980469 81.230469 63.953125 81.203125 61.671875 78.921875 L 59.367188 76.585938 L 64.34375 70.621094 L 69.355469 64.660156 L 75.910156 71.214844 Z M 79.484375 75.601562 C 80.101562 76.839844 81.058594 77.460938 84.265625 78.726562 C 88.515625 80.386719 90.878906 80.160156 92.988281 77.910156 L 93.804688 77.039062 L 95.546875 78.753906 L 97.292969 80.5 L 96.644531 81.707031 C 95.746094 83.394531 95.519531 85.535156 96.027344 87.222656 L 96.449219 88.574219 L 67.242188 88.574219 L 67.242188 87.644531 C 67.242188 87.167969 67.132812 86.324219 66.992188 85.816406 L 66.710938 84.914062 L 72.671875 79.878906 C 75.964844 77.09375 78.722656 74.816406 78.835938 74.816406 C 78.949219 74.785156 79.230469 75.152344 79.484375 75.601562 Z M 54.246094 78.277344 C 55.539062 78.949219 62.402344 86.097656 62.628906 86.996094 C 63.109375 88.882812 60.914062 90.851562 59.085938 90.207031 C 58.691406 90.09375 56.523438 88.125 54.300781 85.902344 C 50.390625 81.988281 50.222656 81.792969 50.222656 80.667969 C 50.222656 79.710938 50.390625 79.371094 51.148438 78.699219 C 52.164062 77.796875 53.089844 77.683594 54.246094 78.277344 Z M 138.820312 93.890625 C 139.832031 94.847656 139.832031 96.367188 138.820312 97.324219 L 138.089844 98 L 96.167969 98.082031 L 54.21875 98.140625 L 55.792969 96.394531 C 56.664062 95.410156 57.535156 94.652344 57.734375 94.707031 C 57.929688 94.761719 58.886719 94.820312 59.871094 94.820312 C 61.335938 94.820312 61.953125 94.679688 63.25 93.976562 L 64.851562 93.132812 L 101.484375 93.160156 L 138.089844 93.214844 Z M 39.671875 122.222656 C 39.980469 123.546875 40.597656 125.515625 41.050781 126.585938 L 41.867188 128.527344 L 37.53125 128.527344 L 36.605469 127.007812 C 35.589844 125.316406 34.382812 122.082031 34.269531 120.703125 C 34.183594 119.917969 34.492188 119.464844 36.433594 117.328125 L 38.6875 114.878906 L 38.882812 117.328125 C 38.996094 118.679688 39.332031 120.902344 39.671875 122.222656 Z M 138.398438 131.761719 C 139.777344 132.464844 140 134.292969 138.847656 135.417969 L 138.171875 136.121094 L 47.296875 136.121094 L 46.535156 135.445312 C 45.945312 134.941406 45.75 134.546875 45.75 133.730469 C 45.75 132.914062 45.945312 132.519531 46.535156 132.015625 L 47.296875 131.339844 L 92.453125 131.339844 C 131.53125 131.339844 137.722656 131.394531 138.398438 131.761719 Z M 138.398438 131.761719 "/>
<path style=" stroke:none;fill-rule:nonzero;fill:rgb(0.392157%,1.568627%,41.960784%);fill-opacity:1;" d="M 57.453125 117.917969 C 56.691406 118.734375 56.664062 120.085938 57.367188 120.957031 L 57.902344 121.632812 L 109.136719 121.632812 L 109.785156 121.011719 C 110.628906 120.167969 110.601562 118.480469 109.726562 117.777344 C 109.136719 117.300781 107.644531 117.269531 83.589844 117.269531 L 58.042969 117.269531 Z M 57.453125 117.917969 "/>
</g>
</svg>
