<?xml version="1.0" encoding="UTF-8"?>
<svg xmlns="http://www.w3.org/2000/svg" xmlns:xlink="http://www.w3.org/1999/xlink" width="144pt" height="144pt" viewBox="0 0 144 144" version="1.1">
<g id="surface1">
<path style=" stroke:none;fill-rule:nonzero;fill:rgb(0.392157%,1.568627%,41.960784%);fill-opacity:1;" d="M 69.296875 0.679688 C 67.835938 1.550781 66.792969 3.238281 66.539062 5.207031 L 66.34375 6.699219 L 40.066406 6.699219 L 38.769531 7.515625 C 35.535156 9.570312 35.421875 14.941406 38.574219 17.023438 C 39.191406 17.417969 39.671875 17.785156 39.671875 17.839844 C 39.671875 17.898438 37.898438 22.847656 35.703125 28.84375 C 31.765625 39.675781 31.738281 39.785156 31.847656 41.726562 C 32.101562 45.46875 34.550781 49.015625 38.125 50.757812 C 39.699219 51.519531 40.035156 51.574219 43.046875 51.574219 C 46.058594 51.574219 46.394531 51.519531 47.972656 50.757812 C 50.082031 49.71875 52.445312 47.382812 53.316406 45.46875 C 54.300781 43.332031 54.640625 40.742188 54.1875 39.253906 C 53.851562 38.238281 47.605469 20.964844 46.734375 18.714844 L 46.421875 17.953125 L 66.398438 17.953125 L 66.398438 62.96875 L 58.324219 62.96875 C 49.292969 62.96875 48.898438 63.054688 47.070312 64.96875 C 45.859375 66.234375 45.355469 67.585938 45.128906 69.976562 L 44.933594 71.972656 L 30.046875 71.972656 C 20.875 71.972656 14.96875 72.085938 14.628906 72.253906 C 13.816406 72.703125 13.503906 74.113281 13.503906 77.628906 L 13.503906 80.976562 L 10.945312 80.976562 C 9.539062 80.976562 8.160156 81.117188 7.878906 81.257812 C 7.570312 81.425781 7.203125 82.019531 7.035156 82.609375 C 6.640625 84.042969 6.640625 140.933594 7.035156 142.367188 C 7.203125 142.960938 7.570312 143.550781 7.878906 143.71875 C 8.214844 143.914062 29.796875 144 72.421875 144 C 136.089844 144 136.457031 144 137.019531 143.4375 C 137.582031 142.875 137.582031 142.507812 137.582031 112.488281 C 137.582031 76.898438 138.089844 80.976562 133.644531 80.976562 L 130.828125 80.976562 L 130.828125 77.039062 C 130.828125 73.464844 130.773438 73.042969 130.265625 72.535156 C 129.703125 71.972656 129.339844 71.972656 114.511719 71.972656 L 99.316406 71.972656 L 99.316406 69.917969 C 99.316406 67.554688 98.753906 66.09375 97.320312 64.742188 C 95.519531 63.027344 95.125 62.96875 86.09375 62.96875 L 77.933594 62.96875 L 77.933594 17.953125 L 88.0625 17.953125 C 93.632812 17.953125 98.191406 18.007812 98.191406 18.066406 C 98.191406 18.121094 96.390625 23.074219 94.226562 29.09375 C 90.371094 39.675781 90.257812 40.066406 90.398438 41.757812 C 90.679688 45.386719 93.070312 48.847656 96.53125 50.648438 C 98.277344 51.546875 98.445312 51.574219 101.570312 51.574219 C 104.496094 51.574219 104.972656 51.492188 106.40625 50.816406 C 109.785156 49.238281 112.230469 45.976562 112.851562 42.261719 L 113.1875 40.320312 L 110.148438 32.019531 C 108.488281 27.464844 106.660156 22.371094 106.070312 20.710938 L 104.972656 17.699219 L 105.957031 17.109375 C 106.492188 16.773438 107.253906 15.925781 107.675781 15.222656 C 109.25 12.550781 108.320312 8.949219 105.675781 7.402344 L 104.464844 6.699219 L 77.933594 6.699219 L 77.933594 5.234375 C 77.933594 3.351562 76.949219 1.636719 75.289062 0.648438 C 73.574219 -0.335938 70.984375 -0.335938 69.296875 0.679688 Z M 103.003906 11.480469 C 103.285156 11.652344 103.539062 12.015625 103.539062 12.328125 C 103.539062 12.636719 103.285156 13 103.003906 13.171875 C 102.636719 13.367188 92.539062 13.453125 72.308594 13.453125 C 52.078125 13.453125 41.976562 13.367188 41.613281 13.171875 C 40.9375 12.804688 40.910156 11.875 41.585938 11.511719 C 42.257812 11.117188 102.242188 11.089844 103.003906 11.480469 Z M 73.152344 40.460938 L 73.152344 62.96875 L 71.183594 62.96875 L 71.183594 17.953125 L 73.152344 17.953125 Z M 45.832031 38.15625 C 44.3125 38.183594 41.808594 38.183594 40.289062 38.15625 L 37.503906 38.070312 L 40.09375 31.035156 C 41.5 27.152344 42.738281 23.75 42.878906 23.441406 C 43.046875 23.019531 43.777344 24.734375 45.859375 30.472656 L 48.617188 38.070312 Z M 104.496094 30.585938 C 105.984375 34.664062 107.195312 38.042969 107.195312 38.097656 C 107.195312 38.15625 104.71875 38.210938 101.710938 38.210938 C 98.644531 38.210938 96.222656 38.097656 96.222656 37.957031 C 96.222656 37.816406 97.375 34.554688 98.753906 30.726562 C 100.160156 26.871094 101.371094 23.550781 101.429688 23.328125 C 101.511719 23.101562 101.625 22.988281 101.679688 23.046875 C 101.765625 23.101562 103.003906 26.507812 104.496094 30.585938 Z M 48.84375 43.5 C 47.351562 46.398438 43.609375 47.777344 40.628906 46.511719 C 39.363281 46.003906 37.84375 44.625 37.25 43.472656 L 36.828125 42.710938 L 49.265625 42.710938 Z M 107.757812 42.882812 C 107.757812 42.992188 107.503906 43.472656 107.195312 43.980469 C 105.59375 46.59375 102.046875 47.691406 99.09375 46.484375 C 97.882812 46.03125 95.660156 43.808594 95.660156 43.105469 C 95.660156 42.796875 96.785156 42.710938 101.710938 42.710938 C 105.03125 42.710938 107.757812 42.796875 107.757812 42.882812 Z M 93.101562 67.78125 C 94.226562 68.175781 94.535156 68.765625 94.535156 70.539062 L 94.535156 71.945312 L 86.320312 72.03125 L 78.074219 72.113281 L 76.5 72.902344 C 75.628906 73.324219 74.332031 74.195312 73.601562 74.816406 L 72.308594 75.96875 L 71.015625 74.816406 C 70.28125 74.195312 68.988281 73.324219 68.117188 72.902344 L 66.539062 72.113281 L 58.183594 72.03125 L 49.800781 71.945312 L 49.800781 71.015625 C 49.800781 69.441406 50.363281 68.289062 51.320312 67.867188 C 52.472656 67.359375 91.664062 67.273438 93.101562 67.78125 Z M 65.976562 77.289062 C 66.597656 77.574219 67.496094 78.246094 68.003906 78.753906 C 69.859375 80.722656 69.777344 79.203125 69.777344 107.03125 C 69.777344 120.871094 69.691406 132.183594 69.578125 132.125 C 69.4375 132.070312 68.734375 131.703125 67.945312 131.3125 L 66.539062 130.636719 L 42.429688 130.550781 L 18.289062 130.496094 L 18.289062 76.757812 L 41.585938 76.757812 C 63.640625 76.757812 64.910156 76.785156 65.976562 77.289062 Z M 126.046875 103.625 L 126.046875 130.496094 L 102.046875 130.550781 L 78.019531 130.636719 L 76.273438 131.535156 L 74.53125 132.4375 L 74.613281 107.058594 L 74.699219 81.679688 L 75.320312 80.554688 C 75.65625 79.9375 76.332031 79.035156 76.867188 78.527344 C 78.777344 76.699219 77.429688 76.785156 102.917969 76.757812 L 126.046875 76.757812 Z M 13.503906 109.253906 C 13.503906 134.660156 13.503906 134.519531 14.96875 134.855469 C 15.332031 134.941406 26.644531 135.023438 40.09375 135.082031 C 62.96875 135.136719 64.65625 135.164062 65.695312 135.644531 C 66.992188 136.234375 68.507812 137.613281 69.101562 138.710938 L 69.523438 139.5 L 11.535156 139.5 L 11.535156 85.757812 L 13.503906 85.757812 Z M 132.800781 112.628906 L 132.800781 139.5 L 75.09375 139.5 L 75.515625 138.710938 C 76.078125 137.640625 77.316406 136.460938 78.636719 135.726562 C 79.765625 135.136719 79.847656 135.136719 104.890625 134.996094 C 129.367188 134.855469 130.042969 134.828125 130.4375 134.320312 C 130.773438 133.84375 130.828125 130.042969 130.828125 109.757812 L 130.828125 85.757812 L 132.800781 85.757812 Z M 132.800781 112.628906 "/>
<path style=" stroke:none;fill-rule:nonzero;fill:rgb(0.392157%,1.568627%,41.960784%);fill-opacity:1;" d="M 25.800781 83.566406 C 24.421875 84.578125 24.84375 87.136719 26.445312 87.699219 C 27.714844 88.125 47.097656 88.125 48.363281 87.699219 C 48.84375 87.53125 49.378906 87.167969 49.519531 86.886719 C 49.996094 85.984375 49.855469 84.410156 49.238281 83.789062 C 48.703125 83.253906 48.308594 83.226562 37.476562 83.226562 C 28.953125 83.226562 26.164062 83.3125 25.800781 83.566406 Z M 55.0625 83.566406 C 53.652344 84.664062 54.046875 87.109375 55.707031 87.699219 C 56.890625 88.09375 60.6875 88.09375 61.871094 87.699219 C 62.910156 87.335938 63.304688 86.714844 63.304688 85.367188 C 63.304688 83.535156 62.6875 83.226562 58.859375 83.226562 C 56.636719 83.226562 55.371094 83.339844 55.0625 83.566406 Z M 25.800781 92.570312 C 24.421875 93.582031 24.84375 96.140625 26.445312 96.703125 C 28.304688 97.324219 30.976562 96.902344 31.511719 95.886719 C 31.988281 94.988281 31.847656 93.414062 31.230469 92.792969 C 30.753906 92.316406 30.300781 92.230469 28.472656 92.230469 C 27.152344 92.230469 26.082031 92.371094 25.800781 92.570312 Z M 34.804688 92.570312 C 33.425781 93.582031 33.847656 96.140625 35.449219 96.703125 C 36.714844 97.125 60.605469 97.15625 61.871094 96.703125 C 62.347656 96.535156 62.882812 96.167969 63.023438 95.886719 C 63.5 94.988281 63.359375 93.414062 62.742188 92.792969 C 62.207031 92.257812 61.8125 92.230469 48.730469 92.230469 C 38.40625 92.230469 35.167969 92.316406 34.804688 92.570312 Z M 25.800781 101.570312 C 25.070312 102.132812 24.757812 103.542969 25.179688 104.527344 C 25.773438 105.90625 26.558594 106.015625 35.167969 106.015625 C 43.214844 106.015625 44.480469 105.875 45.015625 104.890625 C 45.496094 103.992188 45.355469 102.414062 44.734375 101.796875 C 44.199219 101.261719 43.808594 101.234375 35.226562 101.234375 C 28.5 101.234375 26.164062 101.320312 25.800781 101.570312 Z M 50.558594 101.570312 C 49.828125 102.132812 49.519531 103.542969 49.941406 104.527344 C 50.476562 105.792969 51.515625 106.015625 56.550781 106.015625 C 61.136719 106.015625 62.546875 105.765625 63.023438 104.890625 C 63.5 103.992188 63.359375 102.414062 62.742188 101.796875 C 62.207031 101.261719 61.8125 101.234375 56.609375 101.234375 C 52.585938 101.234375 50.898438 101.320312 50.558594 101.570312 Z M 25.800781 110.574219 C 24.421875 111.589844 24.84375 114.148438 26.445312 114.710938 C 27.714844 115.132812 49.347656 115.132812 50.617188 114.710938 C 51.09375 114.542969 51.628906 114.175781 51.769531 113.894531 C 52.246094 112.996094 52.105469 111.417969 51.488281 110.800781 C 50.953125 110.265625 50.558594 110.238281 38.601562 110.238281 C 29.175781 110.238281 26.164062 110.320312 25.800781 110.574219 Z M 57.3125 110.574219 C 55.90625 111.671875 56.300781 114.121094 57.957031 114.710938 C 59.816406 115.328125 62.488281 114.90625 63.023438 113.894531 C 63.5 112.996094 63.359375 111.417969 62.742188 110.800781 C 62.261719 110.320312 61.8125 110.238281 59.984375 110.238281 C 58.664062 110.238281 57.59375 110.378906 57.3125 110.574219 Z M 25.800781 119.578125 C 25.070312 120.140625 24.757812 121.546875 25.179688 122.53125 C 25.714844 123.796875 26.757812 124.023438 31.792969 124.023438 C 36.378906 124.023438 37.785156 123.769531 38.265625 122.898438 C 38.742188 122 38.601562 120.421875 37.984375 119.804688 C 37.449219 119.269531 37.054688 119.242188 31.847656 119.242188 C 27.824219 119.242188 26.136719 119.324219 25.800781 119.578125 Z M 43.808594 119.578125 C 43.074219 120.140625 42.765625 121.546875 43.1875 122.53125 C 43.777344 123.910156 44.566406 124.023438 53.175781 124.023438 C 61.222656 124.023438 62.488281 123.882812 63.023438 122.898438 C 63.53125 121.96875 63.359375 120.421875 62.6875 119.804688 C 62.09375 119.269531 61.730469 119.242188 53.175781 119.242188 C 46.507812 119.242188 44.171875 119.324219 43.808594 119.578125 Z M 81.875 83.789062 C 81.507812 84.15625 81.3125 84.71875 81.3125 85.476562 C 81.3125 87.449219 81.875 87.730469 85.699219 87.730469 C 87.472656 87.730469 89.1875 87.617188 89.46875 87.449219 C 90.230469 87.054688 90.625 85.648438 90.257812 84.632812 C 90.117188 84.15625 89.75 83.648438 89.46875 83.507812 C 89.1875 83.339844 87.472656 83.226562 85.699219 83.226562 C 82.800781 83.226562 82.378906 83.285156 81.875 83.789062 Z M 95.378906 83.789062 C 95.011719 84.15625 94.816406 84.71875 94.816406 85.476562 C 94.816406 86.238281 95.011719 86.800781 95.378906 87.167969 C 95.914062 87.699219 96.308594 87.730469 107.082031 87.730469 C 113.808594 87.730469 118.421875 87.617188 118.730469 87.449219 C 119.492188 87.054688 119.886719 85.648438 119.519531 84.632812 C 119.378906 84.15625 119.011719 83.648438 118.730469 83.507812 C 118.421875 83.339844 113.808594 83.226562 107.082031 83.226562 C 96.308594 83.226562 95.914062 83.253906 95.378906 83.789062 Z M 81.875 92.792969 C 81.507812 93.160156 81.3125 93.722656 81.3125 94.480469 C 81.3125 95.242188 81.507812 95.804688 81.875 96.167969 C 82.410156 96.703125 82.800781 96.734375 95.828125 96.734375 C 104.015625 96.734375 109.390625 96.621094 109.726562 96.453125 C 110.488281 96.058594 110.882812 94.652344 110.515625 93.636719 C 110.375 93.160156 110.007812 92.652344 109.726562 92.511719 C 109.390625 92.34375 104.015625 92.230469 95.828125 92.230469 C 82.800781 92.230469 82.410156 92.257812 81.875 92.792969 Z M 113.386719 92.792969 C 113.019531 93.160156 112.824219 93.722656 112.824219 94.480469 C 112.824219 96.253906 113.5 96.734375 116.085938 96.734375 C 117.238281 96.734375 118.449219 96.621094 118.730469 96.453125 C 119.492188 96.058594 119.886719 94.652344 119.519531 93.636719 C 119.125 92.457031 118.535156 92.230469 116.085938 92.230469 C 114.3125 92.230469 113.835938 92.34375 113.386719 92.792969 Z M 81.875 101.796875 C 81.507812 102.164062 81.3125 102.726562 81.3125 103.484375 C 81.3125 104.246094 81.507812 104.808594 81.875 105.171875 C 82.410156 105.707031 82.800781 105.734375 87.953125 105.734375 C 90.988281 105.734375 93.664062 105.625 93.972656 105.453125 C 94.730469 105.0625 95.125 103.652344 94.761719 102.640625 C 94.621094 102.164062 94.253906 101.65625 93.972656 101.515625 C 93.664062 101.347656 90.988281 101.234375 87.953125 101.234375 C 82.800781 101.234375 82.410156 101.261719 81.875 101.796875 Z M 99.878906 101.796875 C 99.515625 102.164062 99.316406 102.726562 99.316406 103.484375 C 99.316406 104.246094 99.515625 104.808594 99.878906 105.171875 C 100.414062 105.707031 100.808594 105.734375 109.335938 105.734375 C 114.566406 105.734375 118.421875 105.625 118.730469 105.453125 C 119.492188 105.0625 119.886719 103.652344 119.519531 102.640625 C 119.378906 102.164062 119.011719 101.65625 118.730469 101.515625 C 118.421875 101.347656 114.566406 101.234375 109.335938 101.234375 C 100.808594 101.234375 100.414062 101.261719 99.878906 101.796875 Z M 81.875 110.800781 C 81.253906 111.417969 81.113281 112.996094 81.59375 113.894531 C 81.902344 114.484375 83.476562 115.019531 84.914062 115.019531 C 87.246094 115.019531 88.65625 113.5 88.007812 111.644531 C 87.613281 110.460938 87.023438 110.238281 84.574219 110.238281 C 82.800781 110.238281 82.324219 110.351562 81.875 110.800781 Z M 93.128906 110.800781 C 92.507812 111.417969 92.367188 112.996094 92.847656 113.894531 C 93.382812 114.878906 94.902344 115.019531 106.296875 115.019531 C 118.535156 115.019531 118.957031 114.964844 119.519531 113.359375 C 119.886719 112.320312 119.492188 110.941406 118.730469 110.519531 C 118.394531 110.351562 113.414062 110.238281 105.957031 110.238281 C 94.054688 110.238281 93.664062 110.265625 93.128906 110.800781 Z M 81.875 119.804688 C 81.253906 120.421875 81.113281 122 81.59375 122.898438 C 82.128906 123.882812 83.394531 124.023438 91.496094 124.023438 C 100.273438 124.023438 100.976562 123.910156 101.511719 122.363281 C 101.878906 121.324219 101.484375 119.945312 100.726562 119.523438 C 100.414062 119.351562 96.5625 119.242188 91.328125 119.242188 C 82.800781 119.242188 82.410156 119.269531 81.875 119.804688 Z M 106.632812 119.804688 C 106.015625 120.421875 105.875 122 106.351562 122.898438 C 106.828125 123.769531 108.238281 124.023438 112.824219 124.023438 C 117.945312 124.023438 118.898438 123.796875 119.460938 122.476562 C 119.914062 121.378906 119.546875 119.972656 118.730469 119.523438 C 118.421875 119.351562 115.75 119.242188 112.710938 119.242188 C 107.5625 119.242188 107.167969 119.269531 106.632812 119.804688 Z M 106.632812 119.804688 "/>
</g>
</svg>
