<?xml version="1.0" encoding="UTF-8"?>
<svg xmlns="http://www.w3.org/2000/svg" xmlns:xlink="http://www.w3.org/1999/xlink" width="144pt" height="144pt" viewBox="0 0 144 144" version="1.1">
<g id="surface1">
<path style=" stroke:none;fill-rule:nonzero;fill:rgb(0.392157%,1.568627%,41.960784%);fill-opacity:1;" d="M 4.21875 0.542969 C 2.699219 1.21875 1.886719 1.953125 0.871094 3.46875 L 0.140625 4.597656 L 0.0546875 71.386719 C 0.0273438 118.707031 0.0859375 138.484375 0.308594 139.300781 C 0.703125 140.792969 3.179688 143.269531 4.671875 143.691406 C 5.429688 143.914062 20.621094 144 55.453125 144 L 105.109375 144 L 106.601562 143.269531 C 108.398438 142.367188 109.863281 140.511719 110.285156 138.515625 C 110.511719 137.558594 110.566406 132.914062 110.511719 124.390625 C 110.425781 111.984375 110.398438 111.644531 109.835938 111.082031 C 109.527344 110.773438 108.792969 110.4375 108.230469 110.324219 C 107.359375 110.183594 107.105469 110.296875 106.347656 111.027344 L 105.503906 111.871094 L 105.503906 124.445312 C 105.503906 137.667969 105.445312 138.289062 104.238281 138.765625 C 103.984375 138.851562 81.84375 138.9375 55.03125 138.9375 L 6.273438 138.9375 L 5.683594 138.289062 L 5.0625 137.640625 L 5.0625 6.226562 L 5.710938 5.636719 L 6.359375 5.019531 L 55.058594 5.019531 C 81.84375 5.019531 103.984375 5.101562 104.238281 5.1875 C 105.503906 5.691406 105.503906 5.550781 105.503906 30.058594 L 105.503906 53.183594 L 106.347656 54.027344 C 107.105469 54.757812 107.359375 54.871094 108.230469 54.730469 C 108.792969 54.617188 109.527344 54.28125 109.835938 53.972656 C 110.425781 53.410156 110.425781 53.238281 110.425781 29.269531 C 110.425781 5.972656 110.398438 5.128906 109.890625 4.0625 C 109.160156 2.597656 107.667969 1.136719 106.234375 0.488281 C 105.136719 -0.0195312 103.25 -0.046875 55.285156 -0.046875 C 5.765625 -0.046875 5.484375 -0.0195312 4.21875 0.542969 Z M 4.21875 0.542969 "/>
<path style=" stroke:none;fill-rule:nonzero;fill:rgb(0.392157%,1.568627%,41.960784%);fill-opacity:1;" d="M 22.308594 14.976562 L 21.523438 15.652344 L 21.4375 21 C 21.324219 26.933594 21.578125 28.144531 22.929688 28.652344 C 24.054688 29.074219 86.792969 29.042969 87.582031 28.59375 C 88.507812 28.117188 88.875 27.496094 88.875 26.398438 C 88.875 25.300781 88.507812 24.683594 87.582031 24.207031 C 87.132812 23.953125 79.167969 23.867188 56.71875 23.867188 L 26.445312 23.867188 L 26.445312 19.367188 L 57 19.308594 L 87.554688 19.226562 L 88.226562 18.4375 C 89.15625 17.367188 89.128906 16.019531 88.171875 15.035156 L 87.414062 14.300781 L 23.097656 14.300781 Z M 134.394531 29.042969 C 132.792969 29.636719 131.414062 30.816406 130.289062 32.617188 C 129.386719 34.050781 129.191406 34.222656 128.542969 34.082031 C 127.757812 33.941406 126.6875 34.363281 126.125 35.09375 C 125.929688 35.347656 124.464844 37.765625 122.890625 40.496094 L 119.992188 45.476562 L 118.726562 44.800781 C 118.023438 44.433594 117.039062 44.125 116.558594 44.125 C 115.011719 44.125 113.914062 45.726562 114.335938 47.359375 C 114.503906 47.980469 116.25 49.527344 117.09375 49.808594 C 117.261719 49.863281 112.84375 57.824219 107.246094 67.476562 L 97.117188 85.058594 L 94.585938 91.8125 C 93.179688 95.523438 91.324219 99.941406 90.421875 101.660156 C 88.875 104.554688 88.789062 104.867188 88.761719 106.722656 C 88.761719 108.15625 88.902344 109 89.324219 109.816406 L 89.917969 110.941406 L 87.523438 113.898438 C 86.230469 115.527344 85.078125 116.964844 84.964844 117.074219 C 84.851562 117.1875 84.429688 116.402344 84.007812 115.304688 C 82.6875 111.957031 81.335938 110.800781 78.71875 110.800781 C 77.03125 110.800781 75.792969 111.421875 74.808594 112.742188 C 74.46875 113.222656 74.105469 113.53125 73.992188 113.476562 C 73.878906 113.390625 73.710938 111.984375 73.597656 110.324219 C 73.121094 103.289062 72.671875 102.050781 70.222656 100.925781 C 68.816406 100.28125 67.832031 100.25 66.453125 100.84375 C 64.230469 101.742188 64.117188 102.023438 60.65625 112.460938 C 58.378906 119.328125 57.476562 122.421875 57.589844 122.984375 C 57.929688 124.617188 60.292969 125.460938 61.585938 124.363281 C 62.007812 124.023438 63.046875 121.269531 65.101562 115.164062 C 68.394531 105.316406 68.054688 105.570312 68.648438 112.40625 C 68.957031 116.121094 69.210938 117.074219 70.136719 118.058594 C 72.332031 120.421875 76.128906 120.113281 77.960938 117.414062 C 78.324219 116.878906 78.691406 116.429688 78.773438 116.429688 C 78.859375 116.429688 79.226562 117.214844 79.589844 118.171875 C 80.800781 121.410156 82.234375 122.617188 84.824219 122.617188 C 87.046875 122.617188 87.835938 121.972656 92 116.683594 L 94.109375 113.980469 L 95.9375 113.980469 C 99.371094 113.980469 100.917969 112.855469 103.730469 108.324219 C 104.628906 106.917969 107.304688 103.402344 109.636719 100.5625 L 113.941406 95.382812 L 124.128906 77.6875 C 129.699219 67.980469 134.339844 59.964844 134.394531 59.878906 C 134.59375 59.652344 136.507812 60.835938 137.070312 61.539062 C 137.433594 62.015625 137.574219 62.523438 137.460938 63.003906 C 137.378906 63.425781 135.042969 67.699219 132.257812 72.539062 C 127.867188 80.136719 127.222656 81.457031 127.363281 82.21875 C 127.671875 84.046875 129.980469 85.003906 131.328125 83.878906 C 131.835938 83.425781 140.023438 69.53125 141.796875 66.070312 C 142.300781 65.140625 142.46875 64.324219 142.46875 62.972656 C 142.46875 59.964844 141.234375 57.9375 138.390625 56.164062 L 137.011719 55.320312 L 137.914062 53.746094 C 138.417969 52.847656 139.796875 50.425781 141.007812 48.34375 C 142.246094 46.207031 143.203125 44.238281 143.203125 43.816406 C 143.203125 43.394531 142.976562 42.773438 142.667969 42.40625 C 142.160156 41.761719 142.160156 41.734375 143.089844 39.792969 C 144.355469 37.203125 144.410156 34.839844 143.316406 32.644531 C 141.738281 29.464844 137.742188 27.863281 134.394531 29.042969 Z M 138.503906 34.585938 C 138.757812 34.925781 138.980469 35.488281 138.980469 35.882812 C 138.980469 36.726562 137.96875 38.777344 137.546875 38.777344 C 137.265625 38.777344 134.367188 37.257812 133.917969 36.894531 C 133.691406 36.695312 134.875 34.785156 135.578125 34.222656 C 136.449219 33.546875 137.773438 33.714844 138.503906 34.585938 Z M 133.300781 42.4375 C 135.324219 43.589844 136.984375 44.6875 136.929688 44.855469 C 136.757812 45.644531 132.625 52.535156 132.34375 52.480469 C 131.554688 52.3125 124.632812 48.175781 124.71875 47.894531 C 124.886719 47.105469 129.023438 40.214844 129.304688 40.269531 C 129.445312 40.296875 131.246094 41.28125 133.300781 42.4375 Z M 126.125 54.929688 L 129.980469 57.148438 L 129.445312 58.023438 C 129.164062 58.5 124.886719 65.84375 119.992188 74.367188 C 115.097656 82.863281 111.015625 89.898438 110.960938 89.953125 C 110.734375 90.207031 103.109375 85.539062 103.195312 85.199219 C 103.335938 84.554688 121.90625 52.535156 122.101562 52.621094 C 122.1875 52.675781 124.015625 53.71875 126.125 54.929688 Z M 103.984375 92.035156 C 105.671875 93.019531 107.246094 93.949219 107.5 94.089844 C 107.894531 94.316406 107.527344 94.90625 105.050781 97.859375 C 103.421875 99.800781 102.015625 101.378906 101.902344 101.378906 C 101.421875 101.378906 97.625 99.097656 97.625 98.816406 C 97.625 98.621094 98.273438 96.792969 99.03125 94.738281 C 99.820312 92.65625 100.496094 90.796875 100.578125 90.601562 C 100.636719 90.433594 100.746094 90.265625 100.804688 90.265625 C 100.886719 90.265625 102.296875 91.050781 103.984375 92.035156 Z M 98.75 105.738281 C 99.117188 105.960938 99.117188 106.101562 98.636719 106.976562 C 97.878906 108.382812 97.203125 108.917969 96.160156 108.917969 C 95.175781 108.917969 93.96875 107.792969 93.96875 106.835938 C 93.96875 106.273438 94.613281 104.808594 95.148438 104.132812 C 95.402344 103.796875 95.9375 104.023438 98.75 105.738281 Z M 29.511719 34.25 C 28.273438 35.488281 28.527344 37.511719 30.019531 38.1875 C 30.949219 38.609375 79.703125 38.636719 80.519531 38.1875 C 81.390625 37.710938 81.925781 36.191406 81.558594 35.148438 C 80.941406 33.347656 82.09375 33.433594 55.003906 33.433594 L 30.328125 33.433594 Z M 39.359375 50.679688 C 38.121094 51.636719 38.007812 53.660156 39.132812 54.703125 C 39.695312 55.210938 40.710938 55.238281 66.789062 55.320312 C 87.1875 55.378906 94.023438 55.292969 94.644531 55.039062 C 95.570312 54.675781 96.332031 53.128906 96.050781 52.199219 C 95.964844 51.859375 95.597656 51.296875 95.289062 50.933594 L 94.726562 50.3125 L 67.269531 50.3125 C 46.113281 50.34375 39.695312 50.398438 39.359375 50.679688 Z M 17.527344 65.335938 C 16.429688 66.292969 16.429688 68.09375 17.527344 69.050781 L 18.316406 69.726562 L 68.054688 69.726562 L 68.84375 69.050781 C 69.941406 68.09375 69.941406 66.292969 68.84375 65.335938 L 68.054688 64.664062 L 18.316406 64.664062 Z M 17.527344 65.335938 "/>
<path style=" stroke:none;fill-rule:nonzero;fill:rgb(0.392157%,1.568627%,41.960784%);fill-opacity:1;" d="M 75.089844 65.476562 C 74.527344 66.039062 74.273438 66.574219 74.273438 67.195312 C 74.273438 67.8125 74.527344 68.347656 75.089844 68.910156 L 75.90625 69.726562 L 94.503906 69.726562 L 95.289062 69.050781 C 95.910156 68.515625 96.078125 68.152344 96.078125 67.195312 C 96.078125 66.238281 95.910156 65.871094 95.289062 65.335938 L 94.503906 64.664062 L 75.90625 64.664062 Z M 17.527344 77.378906 C 16.683594 78.308594 16.515625 79.121094 16.992188 80.25 C 17.640625 81.824219 18.0625 81.851562 31.847656 81.769531 L 44.171875 81.683594 L 44.902344 80.953125 C 45.859375 79.96875 45.914062 78.417969 44.984375 77.433594 L 44.367188 76.757812 L 18.089844 76.757812 Z M 51.0625 77.464844 C 50.078125 78.417969 50.105469 80.078125 51.089844 81.007812 L 51.824219 81.683594 L 70.558594 81.683594 L 71.292969 81.007812 C 72.332031 80.023438 72.332031 78.167969 71.292969 77.351562 C 70.558594 76.789062 70.222656 76.757812 61.136719 76.757812 L 51.738281 76.757812 Z M 27.035156 93.695312 C 17.019531 95.101562 9.566406 103.742188 9.566406 113.867188 C 9.566406 117.496094 10.15625 120 11.648438 123.039062 C 13.84375 127.429688 16.570312 130.15625 20.960938 132.351562 C 24 133.84375 26.503906 134.433594 30.132812 134.433594 C 40.597656 134.460938 49.039062 126.894531 50.359375 116.34375 C 50.613281 114.347656 50.585938 113.726562 50.246094 112.941406 C 49.570312 111.28125 47.347656 111 46.082031 112.378906 C 45.800781 112.714844 45.519531 113.839844 45.351562 115.332031 C 44.648438 121.015625 41.554688 125.488281 36.714844 127.792969 C 33.957031 129.117188 32.183594 129.484375 29.148438 129.285156 C 25.941406 129.117188 23.324219 128.1875 20.847656 126.304688 C 17.105469 123.519531 14.96875 119.496094 14.714844 114.851562 C 14.433594 110.265625 15.894531 106.414062 19.101562 103.234375 C 24.363281 97.972656 31.875 97.128906 38.375 101.066406 C 40.457031 102.304688 41.414062 102.363281 42.511719 101.265625 C 44.3125 99.464844 43.242188 97.71875 39.105469 95.636719 C 35.644531 93.921875 30.890625 93.132812 27.035156 93.695312 Z M 27.035156 93.695312 "/>
<path style=" stroke:none;fill-rule:nonzero;fill:rgb(0.392157%,1.568627%,41.960784%);fill-opacity:1;" d="M 33.902344 111.363281 L 29.398438 115.867188 L 26.558594 113.023438 C 23.96875 110.4375 23.605469 110.183594 22.675781 110.183594 C 20.734375 110.183594 19.582031 111.984375 20.398438 113.726562 C 21.015625 115.023438 26.136719 119.972656 27.375 120.507812 C 28.667969 121.042969 30.132812 121.042969 31.398438 120.507812 C 32.523438 120.03125 40.878906 111.984375 41.527344 110.746094 C 42.480469 108.890625 41.414062 106.863281 39.445312 106.863281 C 38.515625 106.863281 38.066406 107.257812 33.902344 111.363281 Z M 33.902344 111.363281 "/>
</g>
</svg>
