<?xml version="1.0" encoding="UTF-8"?>
<svg xmlns="http://www.w3.org/2000/svg" xmlns:xlink="http://www.w3.org/1999/xlink" width="144pt" height="144pt" viewBox="0 0 144 144" version="1.1">
<g id="surface1">
<path style=" stroke:none;fill-rule:nonzero;fill:rgb(0.392157%,1.568627%,41.960784%);fill-opacity:1;" d="M 14.796875 0.65625 C 11.984375 1.8125 9.761719 4.0625 8.582031 6.902344 C 8.019531 8.226562 8.019531 9.210938 7.933594 65.648438 C 7.878906 107.734375 7.933594 123.492188 8.160156 124.726562 C 8.835938 128.160156 11.058594 131.085938 14.207031 132.632812 L 15.894531 133.449219 L 28.867188 133.535156 C 40.992188 133.617188 41.863281 133.589844 42.425781 133.113281 C 42.765625 132.832031 43.128906 132.210938 43.214844 131.707031 C 43.355469 130.945312 43.242188 130.664062 42.539062 129.933594 L 41.695312 129.089844 L 17.554688 129.089844 L 16.066406 128.359375 C 14.265625 127.457031 13.082031 125.9375 12.660156 123.941406 C 12.433594 122.871094 12.378906 106.609375 12.433594 65.789062 L 12.519531 9.097656 L 13.136719 7.945312 C 13.84375 6.621094 15.191406 5.382812 16.515625 4.820312 C 17.273438 4.511719 23.351562 4.457031 50.191406 4.457031 L 82.96875 4.457031 L 83.050781 12.390625 L 83.136719 20.351562 L 84.035156 22.207031 C 85.132812 24.429688 87.160156 26.429688 89.410156 27.46875 C 91.011719 28.230469 91.042969 28.230469 98.976562 28.3125 L 106.910156 28.398438 L 106.910156 46.628906 C 106.910156 65.421875 106.964844 66.351562 108.035156 66.914062 C 108.878906 67.363281 110.144531 67.222656 110.792969 66.632812 L 111.410156 66.039062 L 111.410156 46.542969 C 111.410156 29.324219 111.355469 26.90625 110.960938 25.667969 C 110.539062 24.429688 109.300781 23.109375 98.777344 12.585938 C 88.257812 2.0625 86.933594 0.824219 85.695312 0.402344 C 84.429688 0.0117188 80.941406 -0.046875 50.386719 -0.046875 L 16.457031 -0.046875 Z M 98.273438 23.8125 C 93.9375 23.867188 92.757812 23.8125 91.773438 23.417969 C 90.058594 22.769531 88.929688 21.730469 88.171875 20.070312 C 87.554688 18.746094 87.496094 18.355469 87.496094 13.175781 L 87.496094 7.691406 L 95.515625 15.707031 L 103.53125 23.726562 Z M 98.273438 23.8125 "/>
<path style=" stroke:none;fill-rule:nonzero;fill:rgb(0.392157%,1.568627%,41.960784%);fill-opacity:1;" d="M 23.800781 24.457031 C 22.816406 25.21875 22.789062 26.878906 23.71875 27.75 L 24.363281 28.371094 L 60.683594 28.371094 L 61.277344 27.722656 C 62.175781 26.765625 62.121094 25.21875 61.164062 24.457031 C 60.433594 23.867188 60.207031 23.867188 42.480469 23.867188 C 24.757812 23.867188 24.53125 23.867188 23.800781 24.457031 Z M 24.28125 38.777344 C 23.011719 39.285156 22.648438 41.453125 23.632812 42.4375 C 24.195312 43 24.5625 43 59.757812 43 L 95.347656 43 L 95.910156 42.265625 C 96.894531 41 96.640625 39.59375 95.347656 38.917969 C 94.671875 38.554688 89.777344 38.496094 59.726562 38.527344 C 40.371094 38.527344 24.617188 38.636719 24.28125 38.777344 Z M 23.632812 52.28125 C 22.902344 53.015625 22.902344 54.535156 23.605469 55.40625 L 24.140625 56.082031 L 59.136719 56.164062 C 78.351562 56.195312 94.390625 56.164062 94.753906 56.082031 C 96.414062 55.6875 97.007812 53.832031 95.910156 52.453125 L 95.347656 51.71875 L 59.757812 51.71875 C 24.5625 51.71875 24.195312 51.71875 23.632812 52.28125 Z M 45.941406 71.132812 C 45.464844 71.246094 44.703125 71.582031 44.28125 71.890625 C 43.1875 72.707031 24.730469 103.851562 24.5625 105.230469 C 24.335938 106.722656 24.671875 108.128906 25.460938 109.085938 C 26.304688 110.070312 31.511719 113.136719 33.058594 113.585938 C 34.71875 114.039062 36.800781 113.953125 38.542969 113.332031 C 39.386719 113.050781 40.175781 112.882812 40.316406 112.96875 C 40.429688 113.023438 40.089844 113.699219 39.554688 114.460938 C 37.839844 116.851562 37.585938 117.527344 37.585938 119.804688 C 37.558594 122.28125 38.148438 123.632812 39.921875 125.234375 C 41.105469 126.304688 43.296875 127.121094 44.929688 127.121094 C 45.578125 127.121094 45.859375 127.261719 45.859375 127.542969 C 45.859375 128.328125 46.925781 130.101562 47.96875 131.003906 C 49.289062 132.183594 50.699219 132.746094 52.328125 132.746094 C 53.652344 132.746094 53.652344 132.746094 54.15625 134.070312 C 54.832031 135.839844 56.269531 137.332031 58.011719 138.09375 C 59.277344 138.625 59.8125 138.710938 61.667969 138.570312 C 63.609375 138.402344 63.835938 138.457031 64.003906 138.90625 C 64.257812 139.75 66.113281 141.496094 67.351562 142.058594 C 68.703125 142.675781 71.402344 142.734375 72.894531 142.199219 C 73.457031 142.003906 74.359375 141.496094 74.921875 141.074219 L 75.933594 140.285156 L 78.972656 142.085938 C 81.8125 143.746094 82.152344 143.859375 84.035156 143.945312 C 85.132812 144 86.484375 143.914062 87.019531 143.746094 C 88.59375 143.210938 90.449219 141.382812 91.152344 139.667969 L 91.800781 138.175781 L 93.09375 138.570312 C 96.726562 139.695312 100.917969 137.558594 102.042969 133.984375 L 102.519531 132.464844 L 104.066406 132.464844 C 107.078125 132.464844 110.199219 130.214844 110.902344 127.511719 L 111.214844 126.359375 L 113.265625 126.5 C 115.097656 126.613281 115.519531 126.527344 116.898438 125.855469 C 120.554688 124.082031 121.988281 119.523438 120.046875 116.007812 L 119.371094 114.824219 L 120.722656 114.09375 C 121.820312 113.476562 122.1875 113.390625 122.804688 113.617188 C 123.847656 114.007812 126.546875 113.953125 127.785156 113.503906 C 128.347656 113.304688 130.148438 112.347656 131.78125 111.363281 C 135.324219 109.28125 136.027344 108.382812 136 106.019531 C 136 104.5 135.859375 104.21875 126.773438 88.855469 C 121.707031 80.277344 117.121094 72.847656 116.617188 72.34375 C 115.433594 71.21875 113.746094 70.738281 112.3125 71.105469 C 110.960938 71.46875 106.207031 74.285156 104.996094 75.4375 C 104.460938 75.945312 103.703125 76.957031 103.308594 77.746094 C 102.660156 78.953125 102.546875 79.488281 102.546875 81.597656 L 102.546875 84.046875 L 101.675781 84.1875 C 100.4375 84.441406 99.3125 84.160156 95.65625 82.722656 C 91.433594 81.0625 90.058594 81.035156 84.429688 82.5 L 80.351562 83.539062 L 78.523438 82.695312 C 74.414062 80.8125 72.417969 80.839844 67.183594 82.835938 C 63.046875 84.414062 61.585938 84.523438 59.503906 83.511719 L 58.097656 82.808594 L 58.011719 81.261719 C 57.84375 77.433594 56.324219 75.4375 51.625 72.792969 C 48.699219 71.132812 47.460938 70.765625 45.941406 71.132812 Z M 50.277344 77.351562 C 53.003906 79.011719 53.59375 79.828125 53.371094 81.796875 C 53.257812 82.863281 51.933594 85.285156 45.800781 95.609375 C 40.117188 105.175781 38.148438 108.269531 37.445312 108.75 C 35.898438 109.789062 34.800781 109.621094 31.761719 107.820312 C 30.328125 106.949219 29.089844 106.214844 29.035156 106.160156 C 28.949219 106.074219 44.902344 78.953125 46.617188 76.253906 C 47.097656 75.464844 47.179688 75.492188 50.277344 77.351562 Z M 122.523438 90.742188 C 127.390625 98.984375 131.386719 105.851562 131.386719 105.992188 C 131.386719 106.46875 126.601562 109.171875 125.503906 109.3125 C 124.324219 109.480469 123.140625 109 122.214844 107.933594 C 121.875 107.59375 120.074219 104.667969 118.191406 101.488281 C 114.335938 94.960938 113.914062 94.539062 112.113281 95.414062 C 111.015625 95.945312 110.59375 96.988281 111.042969 98.167969 C 111.214844 98.589844 112.816406 101.40625 114.617188 104.414062 C 116.417969 107.453125 117.882812 110.042969 117.882812 110.210938 C 117.882812 110.351562 117.320312 110.800781 116.617188 111.195312 L 115.378906 111.925781 L 100.886719 103.347656 C 90.253906 97.042969 86.175781 94.765625 85.527344 94.765625 C 84.289062 94.765625 83.277344 95.863281 83.277344 97.214844 C 83.277344 98.449219 82.488281 100.308594 81.699219 101.011719 C 81.054688 101.574219 79.28125 102.363281 78.632812 102.363281 C 78.269531 102.363281 78.210938 101.628906 78.210938 97.15625 C 78.210938 88.96875 78.4375 88.660156 86.257812 86.777344 C 90.761719 85.679688 90.761719 85.679688 94.726562 87.28125 C 98.101562 88.632812 100.214844 88.996094 102.324219 88.632812 C 103.222656 88.464844 104.152344 88.265625 104.40625 88.152344 C 104.742188 88.042969 105.082031 88.324219 105.613281 89.25 C 106.429688 90.65625 107.050781 91.109375 108.175781 91.109375 C 109.132812 91.109375 110.285156 89.925781 110.285156 88.96875 C 110.285156 88.546875 109.554688 86.917969 108.683594 85.367188 C 106.824219 82.160156 106.601562 80.78125 107.640625 79.375 C 108.257812 78.503906 112.734375 75.632812 113.296875 75.71875 C 113.492188 75.746094 117.628906 82.527344 122.523438 90.742188 Z M 74.640625 86.070312 C 75.230469 86.242188 75.679688 86.4375 75.625 86.550781 C 75.566406 86.664062 75.175781 87.507812 74.695312 88.433594 L 73.851562 90.125 L 73.765625 96.875 C 73.683594 103.542969 73.683594 103.65625 74.328125 104.585938 C 75.511719 106.355469 76.300781 106.722656 78.71875 106.695312 C 80.351562 106.695312 81.222656 106.527344 82.179688 106.046875 C 84.007812 105.175781 85.695312 103.65625 86.625 102.050781 L 87.382812 100.703125 L 101.421875 109.03125 C 109.160156 113.585938 115.628906 117.554688 115.828125 117.808594 C 117.121094 119.550781 115.769531 122.054688 113.546875 122.054688 C 113.210938 122.054688 108.539062 119.46875 103.167969 116.289062 C 97.792969 113.109375 93.066406 110.4375 92.617188 110.351562 C 91.6875 110.15625 90.449219 111.027344 90.199219 112.039062 C 89.804688 113.585938 90.253906 113.953125 98.160156 118.652344 C 102.324219 121.15625 105.953125 123.460938 106.175781 123.800781 C 107.695312 125.964844 105.191406 128.863281 102.886719 127.652344 C 102.546875 127.457031 99.089844 125.429688 95.175781 123.152344 C 90.507812 120.367188 87.835938 118.960938 87.300781 118.960938 C 86.257812 118.960938 85.359375 119.609375 85.132812 120.535156 C 84.710938 122.140625 85.246094 122.617188 91.183594 126.105469 C 94.277344 127.933594 97.035156 129.765625 97.34375 130.15625 C 98.132812 131.144531 98.046875 132.296875 97.089844 133.367188 C 95.738281 134.882812 95.121094 134.6875 89.042969 131.113281 C 85.472656 128.976562 83.445312 127.964844 82.882812 127.964844 C 81.222656 127.964844 80.210938 129.820312 81.027344 131.339844 C 81.195312 131.648438 82.488281 132.578125 83.921875 133.421875 C 86.597656 134.996094 87.214844 135.699219 87.214844 137.136719 C 87.214844 137.558594 86.878906 138.203125 86.398438 138.683594 C 85.019531 140.03125 83.8125 139.75 79.535156 137.050781 C 78.523438 136.402344 78.492188 136.375 78.886719 135.617188 C 80.070312 133.335938 79.5625 129.960938 77.734375 127.933594 C 76.75 126.839844 74.949219 125.714844 74.21875 125.714844 C 73.9375 125.714844 73.851562 125.066406 73.851562 123.238281 C 73.851562 120.957031 73.765625 120.621094 73.007812 119.355469 C 71.882812 117.554688 69.746094 116.230469 67.492188 115.980469 C 65.917969 115.808594 65.890625 115.78125 65.441406 114.601562 C 63.949219 110.746094 59.222656 109.085938 55.285156 111.054688 L 53.679688 111.871094 L 52.863281 110.941406 C 51.089844 108.917969 47.207031 108.101562 44.648438 109.199219 C 43.75 109.59375 43.550781 109.59375 43.4375 109.253906 C 43.328125 108.972656 55.425781 87.984375 56.15625 87.199219 C 56.210938 87.113281 56.859375 87.339844 57.617188 87.675781 C 60.601562 89.054688 63.246094 89.109375 66.675781 87.871094 C 67.691406 87.507812 69.40625 86.886719 70.476562 86.492188 C 72.699219 85.679688 73.121094 85.648438 74.640625 86.070312 Z M 48.558594 113.476562 C 49.796875 113.980469 50.5 115.445312 50.078125 116.597656 C 49.515625 118.058594 46.449219 121.972656 45.578125 122.335938 C 44.113281 122.957031 42.371094 121.886719 42.03125 120.171875 C 41.890625 119.46875 42.144531 118.933594 43.664062 116.683594 C 44.875 114.910156 45.773438 113.867188 46.449219 113.558594 C 47.601562 112.96875 47.347656 112.96875 48.558594 113.476562 Z M 60.460938 115.472656 C 61.164062 116.035156 61.332031 116.429688 61.332031 117.273438 C 61.332031 118.171875 60.882812 118.960938 58.351562 122.535156 C 54.832031 127.484375 54.074219 128.246094 52.78125 128.246094 C 50.894531 128.246094 49.542969 126.136719 50.386719 124.558594 C 51.007812 123.378906 56.578125 115.753906 57.167969 115.21875 C 58.011719 114.515625 59.445312 114.601562 60.460938 115.472656 Z M 67.945312 120.789062 C 69.320312 121.464844 69.886719 123.066406 69.152344 124.390625 C 68.984375 124.726562 67.464844 126.921875 65.777344 129.257812 C 62.597656 133.703125 61.78125 134.40625 60.320312 134.039062 C 59.164062 133.730469 58.238281 132.632812 58.238281 131.535156 C 58.238281 130.777344 58.828125 129.734375 61.21875 126.386719 C 64.566406 121.691406 65.160156 120.957031 65.972656 120.648438 C 66.761719 120.3125 66.902344 120.3125 67.945312 120.789062 Z M 74.046875 130.75 C 75.34375 131.902344 75.285156 133.054688 73.851562 135.136719 C 71.714844 138.203125 70.277344 138.796875 68.589844 137.277344 C 67.242188 136.09375 67.351562 134.996094 69.011719 132.660156 C 69.746094 131.648438 70.617188 130.609375 70.953125 130.355469 C 71.910156 129.707031 73.035156 129.847656 74.046875 130.75 Z M 74.046875 130.75 "/>
</g>
</svg>
