<?xml version="1.0" encoding="UTF-8"?>
<svg xmlns="http://www.w3.org/2000/svg" xmlns:xlink="http://www.w3.org/1999/xlink" width="144pt" height="144pt" viewBox="0 0 144 144" version="1.1">
<g id="surface1">
<path style=" stroke:none;fill-rule:nonzero;fill:rgb(0.392157%,1.568627%,41.960784%);fill-opacity:1;" d="M 41.667969 0.566406 C 39.613281 1.972656 39.53125 2.199219 39.445312 8.246094 L 39.363281 13.734375 L 21.101562 13.789062 C 3.09375 13.875 2.839844 13.875 2.054688 14.464844 C 1.632812 14.773438 0.984375 15.476562 0.648438 15.984375 C 0.0546875 16.828125 0 17.222656 0 20.851562 C 0 25.296875 0.28125 26.113281 2.195312 27.292969 C 3.066406 27.828125 3.6875 27.941406 6.667969 28.027344 C 8.582031 28.109375 10.128906 28.195312 10.128906 28.25 C 10.128906 28.308594 8.328125 32.835938 6.160156 38.265625 C 2.195312 48.199219 2.195312 48.199219 2.335938 50.027344 C 2.699219 54.585938 5.910156 58.496094 10.382812 59.902344 C 13 60.691406 19.835938 60.691406 22.285156 59.847656 C 26.558594 58.414062 29.402344 55.007812 30.1875 50.449219 L 30.5 48.621094 L 26.390625 38.351562 L 22.285156 28.082031 L 39.390625 28.082031 L 39.390625 69.441406 L 0 69.441406 L 0 144 L 144.054688 144 L 144.054688 69.441406 L 134.515625 69.441406 L 134.09375 68.652344 C 133.558594 67.613281 131.5625 65.8125 130.578125 65.472656 C 129.902344 65.222656 129.730469 64.941406 129.28125 63.027344 C 129.027344 61.84375 128.605469 60.382812 128.382812 59.789062 C 127.875 58.523438 125.511719 56.332031 124.359375 56.078125 C 123.878906 55.964844 123.515625 55.710938 123.515625 55.515625 C 123.515625 55.289062 123.964844 49.324219 124.527344 42.234375 C 125.679688 27.324219 125.679688 25.070312 124.5 22.597656 C 123.484375 20.457031 121.179688 18.121094 119.152344 17.222656 C 111.585938 13.734375 102.863281 18.433594 102.242188 26.308594 C 102.132812 27.40625 102.496094 33.652344 103.089844 41.109375 C 103.652344 48.199219 104.101562 54.417969 104.101562 54.894531 C 104.101562 55.710938 103.960938 55.878906 103.089844 56.191406 C 101.765625 56.667969 100.246094 58.019531 99.597656 59.3125 C 99.289062 59.902344 98.785156 61.449219 98.445312 62.773438 C 97.882812 65.082031 97.828125 65.164062 96.757812 65.671875 C 95.546875 66.207031 93.859375 67.894531 93.550781 68.851562 L 93.382812 69.441406 L 53.457031 69.441406 L 53.457031 28.082031 L 70.621094 28.082031 L 70.085938 29.40625 C 69.804688 30.164062 67.976562 34.722656 66.035156 39.5625 L 62.515625 48.339844 L 62.769531 50.308594 C 63.25 54.277344 65.722656 57.652344 69.410156 59.398438 L 71.324219 60.296875 L 82.015625 60.296875 L 83.929688 59.398438 C 87.585938 57.652344 90.035156 54.359375 90.597656 50.367188 L 90.847656 48.425781 L 86.824219 38.324219 L 82.773438 28.222656 L 86.179688 28.054688 C 90.597656 27.855469 91.691406 27.324219 92.707031 24.902344 C 93.183594 23.722656 93.296875 18.714844 92.847656 17.109375 C 92.539062 15.957031 91.128906 14.464844 89.949219 14.042969 C 89.414062 13.847656 83.195312 13.734375 71.296875 13.734375 L 53.457031 13.734375 L 53.457031 8.5 C 53.457031 2.675781 53.261719 1.859375 51.65625 0.707031 C 50.867188 0.144531 50.390625 0.0859375 46.703125 0.00390625 C 42.820312 -0.0820312 42.570312 -0.0546875 41.667969 0.566406 Z M 48.675781 9.230469 L 48.675781 13.734375 L 44.171875 13.734375 L 44.171875 4.730469 L 48.675781 4.730469 Z M 88.0625 20.90625 L 88.0625 23.019531 L 4.78125 23.019531 L 4.78125 18.796875 L 88.0625 18.796875 Z M 117.015625 21.78125 C 118.675781 22.625 119.96875 24.171875 120.449219 25.886719 C 120.671875 26.761719 120.503906 30.023438 119.714844 40.40625 C 119.179688 47.777344 118.648438 54.25 118.5625 54.726562 L 118.421875 55.65625 L 113.808594 55.65625 C 110.289062 55.65625 109.164062 55.570312 109.164062 55.289062 C 109.136719 55.121094 108.660156 48.707031 108.066406 41.082031 C 107.449219 33.34375 107.082031 26.789062 107.195312 26.308594 C 108.179688 21.921875 112.933594 19.753906 117.015625 21.78125 Z M 20.59375 37.226562 C 22.566406 42.179688 24.195312 46.257812 24.195312 46.285156 C 24.195312 46.34375 20.652344 46.371094 16.320312 46.371094 C 11.984375 46.371094 8.441406 46.285156 8.441406 46.171875 C 8.441406 46.03125 10.042969 41.925781 12.015625 37 C 15.445312 28.417969 15.613281 28.054688 16.289062 28.136719 C 16.9375 28.222656 17.304688 28.984375 20.59375 37.226562 Z M 48.675781 48.761719 L 48.675781 69.441406 L 44.171875 69.441406 L 44.171875 28.082031 L 48.675781 28.082031 Z M 80.972656 37.226562 L 84.632812 46.371094 L 68.707031 46.371094 L 72.363281 37.226562 C 75.683594 28.953125 76.078125 28.082031 76.667969 28.082031 C 77.261719 28.082031 77.652344 28.953125 80.972656 37.226562 Z M 24.757812 51.40625 C 24.757812 52.082031 22.789062 54.136719 21.523438 54.78125 C 20.230469 55.457031 19.863281 55.515625 16.179688 55.515625 C 12.886719 55.515625 12.070312 55.429688 11.253906 54.980469 C 10.015625 54.332031 8.496094 52.925781 7.992188 51.914062 L 7.570312 51.152344 L 16.179688 51.152344 C 21.214844 51.152344 24.757812 51.265625 24.757812 51.40625 Z M 85.25 51.320312 C 85.25 51.96875 83.363281 53.964844 82.097656 54.671875 C 80.636719 55.484375 80.496094 55.515625 76.667969 55.515625 C 73.179688 55.515625 72.589844 55.457031 71.605469 54.921875 C 70.28125 54.191406 69.042969 53.011719 68.480469 51.941406 L 68.058594 51.152344 L 76.667969 51.152344 C 81.394531 51.152344 85.25 51.238281 85.25 51.320312 Z M 123.035156 61.027344 C 123.457031 61.339844 123.910156 62.097656 124.078125 62.773438 C 124.246094 63.421875 124.441406 64.179688 124.527344 64.433594 C 124.667969 64.910156 124.019531 64.941406 113.863281 64.941406 L 103.03125 64.941406 L 103.453125 63.308594 C 103.902344 61.535156 104.214844 61.058594 105.085938 60.71875 C 105.394531 60.578125 109.390625 60.464844 113.976562 60.464844 C 121.96875 60.4375 122.332031 60.464844 123.035156 61.027344 Z M 129.167969 70.539062 C 129.84375 71.242188 129.984375 71.578125 129.984375 72.789062 L 129.984375 74.222656 L 97.574219 74.222656 L 97.6875 72.621094 C 97.796875 71.328125 97.96875 70.902344 98.585938 70.371094 L 99.347656 69.722656 L 128.355469 69.722656 Z M 92.960938 75.492188 C 93.070312 76.023438 93.464844 76.839844 93.886719 77.320312 C 95.351562 79.089844 94.507812 79.007812 113.890625 79.007812 L 131.589844 79.007812 L 132.546875 78.359375 C 133.699219 77.574219 134.769531 76.054688 134.769531 75.179688 C 134.769531 74.535156 134.851562 74.503906 137.019531 74.503906 L 139.269531 74.503906 L 139.269531 129.933594 L 4.78125 129.933594 L 4.78125 74.503906 L 92.789062 74.503906 Z M 139.269531 136.964844 L 139.269531 139.21875 L 4.78125 139.21875 L 4.78125 134.714844 L 139.269531 134.714844 Z M 139.269531 136.964844 "/>
<path style=" stroke:none;fill-rule:nonzero;fill:rgb(0.392157%,1.568627%,41.960784%);fill-opacity:1;" d="M 9.285156 102.078125 L 9.285156 125.429688 L 14.066406 125.429688 L 14.066406 78.726562 L 9.285156 78.726562 Z M 18.570312 95.183594 L 18.570312 111.644531 L 23.351562 111.644531 L 23.351562 78.726562 L 18.570312 78.726562 Z M 27.855469 83.507812 L 27.855469 88.292969 L 32.636719 88.292969 L 32.636719 78.726562 L 27.855469 78.726562 Z M 37.140625 102.078125 L 37.140625 125.429688 L 41.921875 125.429688 L 41.921875 78.726562 L 37.140625 78.726562 Z M 46.421875 102.078125 L 46.421875 125.429688 L 60.492188 125.429688 L 60.492188 78.726562 L 46.421875 78.726562 Z M 55.707031 102.21875 L 55.707031 120.648438 L 51.207031 120.648438 L 51.207031 83.789062 L 55.707031 83.789062 Z M 64.992188 85.902344 L 64.992188 93.074219 L 69.777344 93.074219 L 69.777344 78.726562 L 64.992188 78.726562 Z M 74.277344 102.078125 L 74.277344 125.429688 L 79.058594 125.429688 L 79.058594 78.726562 L 74.277344 78.726562 Z M 83.5625 102.078125 L 83.5625 125.429688 L 88.34375 125.429688 L 88.34375 78.726562 L 83.5625 78.726562 Z M 109.304688 83.902344 C 101.035156 85.789062 94.675781 92.457031 93.128906 100.785156 C 92.59375 103.710938 92.875 108.15625 93.804688 110.941406 C 95.011719 114.542969 96.308594 116.566406 99.175781 119.410156 C 101.371094 121.605469 102.160156 122.195312 104.410156 123.265625 C 107.703125 124.867188 110.261719 125.429688 114.03125 125.429688 C 122.078125 125.429688 129.027344 121.097656 132.714844 113.78125 C 134.175781 110.882812 134.769531 108.183594 134.769531 104.496094 C 134.769531 100.617188 134.261719 98.476562 132.660156 95.183594 C 130.125 90.035156 125.765625 86.265625 120.277344 84.464844 C 117.492188 83.535156 112.0625 83.285156 109.304688 83.902344 Z M 118.5625 89.136719 C 123.910156 90.824219 128.410156 95.746094 129.589844 101.207031 C 130.746094 106.664062 129.199219 111.617188 125.0625 115.722656 C 120.8125 120 115.691406 121.492188 110.179688 120.085938 C 104.550781 118.648438 100.191406 114.570312 98.445312 109.113281 C 97.601562 106.496094 97.601562 102.585938 98.445312 99.96875 C 100.050781 95.015625 103.339844 91.441406 108.097656 89.53125 C 111.304688 88.207031 115.101562 88.066406 118.5625 89.136719 Z M 118.5625 89.136719 "/>
<path style=" stroke:none;fill-rule:nonzero;fill:rgb(0.392157%,1.568627%,41.960784%);fill-opacity:1;" d="M 110.234375 93.328125 C 102.808594 95.777344 99.824219 104.414062 104.101562 111.082031 C 105.226562 112.855469 106.859375 114.203125 109.054688 115.21875 C 111.472656 116.316406 115.15625 116.484375 117.71875 115.554688 C 121.121094 114.375 123.710938 111.785156 124.894531 108.378906 C 125.457031 106.859375 125.539062 106.15625 125.425781 103.964844 C 125.34375 101.796875 125.175781 101.066406 124.441406 99.488281 C 123.289062 97.042969 121.261719 94.988281 118.84375 93.863281 C 116.394531 92.738281 112.738281 92.484375 110.234375 93.328125 Z M 117.128906 98.644531 C 118.816406 99.546875 120.054688 101.289062 120.503906 103.34375 C 121.601562 108.632812 115.777344 113.023438 110.910156 110.546875 C 106.71875 108.410156 105.789062 103.289062 108.96875 99.910156 C 111.21875 97.546875 114.230469 97.070312 117.128906 98.644531 Z M 27.855469 109.113281 L 27.855469 125.429688 L 32.636719 125.429688 L 32.636719 92.792969 L 27.855469 92.792969 Z M 64.992188 99.828125 L 64.992188 102.359375 L 69.777344 102.359375 L 69.777344 97.296875 L 64.992188 97.296875 Z M 64.992188 116.003906 L 64.992188 125.429688 L 69.777344 125.429688 L 69.777344 106.578125 L 64.992188 106.578125 Z M 18.570312 120.648438 L 18.570312 125.429688 L 23.351562 125.429688 L 23.351562 115.863281 L 18.570312 115.863281 Z M 18.570312 120.648438 "/>
</g>
</svg>
