<?xml version="1.0" encoding="UTF-8"?>
<svg xmlns="http://www.w3.org/2000/svg" xmlns:xlink="http://www.w3.org/1999/xlink" width="144pt" height="144pt" viewBox="0 0 144 144" version="1.1">
<g id="surface1">
<path style=" stroke:none;fill-rule:nonzero;fill:rgb(0.392157%,1.568627%,41.960784%);fill-opacity:1;" d="M 30.46875 0.480469 C 26.589844 1.886719 23.550781 5.433594 22.789062 9.484375 C 22.59375 10.46875 22.507812 30.558594 22.507812 67.726562 C 22.507812 117.1875 22.566406 124.671875 22.929688 126.078125 C 24.421875 131.84375 28.867188 134.996094 35.480469 134.996094 L 37.925781 134.996094 L 38.039062 138.824219 C 38.125 142.621094 38.125 142.648438 38.910156 143.324219 C 39.503906 143.832031 40.035156 144 41.019531 144 L 42.34375 144 L 46 140.171875 L 49.6875 136.347656 L 53.34375 140.171875 L 57.003906 144 L 58.351562 144 C 59.449219 144 59.84375 143.859375 60.519531 143.183594 L 61.335938 142.367188 L 61.335938 134.996094 L 90.597656 134.941406 L 119.855469 134.855469 L 120.617188 134.066406 L 121.402344 133.308594 L 121.488281 67.808594 C 121.542969 18.996094 121.460938 2.140625 121.234375 1.550781 C 120.53125 -0.164062 123.824219 -0.0546875 75.824219 -0.0546875 C 33.734375 -0.0234375 31.878906 -0.0234375 30.46875 0.480469 Z M 115.636719 53.402344 L 115.636719 101.234375 L 74.164062 101.234375 C 34.382812 101.234375 32.609375 101.261719 31.035156 101.769531 C 30.132812 102.050781 29.175781 102.386719 28.894531 102.5 C 28.445312 102.695312 28.417969 100.53125 28.472656 56.472656 C 28.558594 11.933594 28.585938 10.1875 29.09375 9.230469 C 30.105469 7.289062 31.484375 6.25 33.480469 5.828125 C 34.015625 5.714844 52.726562 5.628906 75.066406 5.601562 L 115.636719 5.574219 Z M 115.636719 109.816406 L 115.636719 112.488281 L 90.0625 112.488281 L 89.328125 113.136719 C 88.765625 113.585938 88.542969 114.121094 88.429688 115.046875 C 88.289062 116.203125 88.375 116.457031 89.132812 117.300781 L 89.976562 118.257812 L 102.808594 118.339844 L 115.636719 118.425781 L 115.636719 129.089844 L 61.335938 129.089844 L 61.335938 123.546875 L 62.601562 123.375 C 63.304688 123.320312 64.148438 123.011719 64.457031 122.730469 C 65.613281 121.6875 65.613281 119.464844 64.429688 118.257812 C 63.867188 117.695312 63.558594 117.695312 49.773438 117.695312 L 35.675781 117.695312 L 35 118.480469 C 34.269531 119.324219 34.070312 121.070312 34.605469 122.082031 C 34.972656 122.757812 36.324219 123.460938 37.28125 123.460938 L 37.984375 123.460938 L 37.984375 129.089844 L 35.84375 129.089844 C 32.976562 129.089844 31.625 128.636719 30.1875 127.230469 C 28.558594 125.570312 28.332031 124.363281 28.472656 117.242188 L 28.558594 111.449219 L 29.402344 110.097656 C 30.019531 109.085938 30.667969 108.492188 31.765625 107.929688 L 33.257812 107.144531 L 115.636719 107.144531 Z M 55.425781 128.582031 L 55.425781 133.730469 L 53.511719 131.703125 C 51.488281 129.539062 50.8125 129.089844 49.660156 129.089844 C 48.5625 129.089844 47.886719 129.539062 45.804688 131.734375 L 43.917969 133.730469 L 43.890625 128.582031 L 43.890625 123.460938 L 55.425781 123.460938 Z M 55.425781 128.582031 "/>
<path style=" stroke:none;fill-rule:nonzero;fill:rgb(0.392157%,1.568627%,41.960784%);fill-opacity:1;" d="M 56.917969 13.085938 C 56.582031 13.140625 55.960938 13.59375 55.539062 14.097656 C 54.921875 14.832031 54.835938 15.167969 54.949219 16.238281 C 55.0625 17.136719 55.3125 17.699219 55.792969 18.121094 L 56.496094 18.742188 L 50.617188 28.53125 L 44.734375 38.351562 L 43.242188 38.265625 C 41.949219 38.183594 41.613281 38.265625 40.851562 38.886719 C 39.785156 39.816406 39.503906 40.941406 40.035156 42.234375 C 40.402344 43.105469 41.585938 43.867188 50.585938 49.296875 C 61.8125 56.046875 62.039062 56.132812 63.613281 54.558594 C 64.710938 53.460938 64.769531 51.601562 63.753906 50.394531 L 63.078125 49.605469 L 63.78125 48.394531 C 64.175781 47.722656 64.65625 47.214844 64.851562 47.269531 C 65.050781 47.328125 69.945312 50.195312 75.742188 53.683594 L 86.261719 60.015625 L 86.261719 61.367188 C 86.234375 62.578125 86.347656 62.828125 87.164062 63.5625 C 88.261719 64.546875 89.863281 64.660156 90.933594 63.8125 L 91.636719 63.28125 L 93.578125 64.320312 C 95.40625 65.304688 95.660156 65.363281 98.050781 65.363281 C 100.246094 65.363281 100.78125 65.25 102.019531 64.601562 C 104.917969 63.082031 106.492188 60.4375 106.492188 57.0625 C 106.492188 53.683594 105.171875 51.40625 102.074219 49.410156 C 100.867188 48.648438 100.726562 48.453125 100.726562 47.496094 C 100.726562 45.496094 98.8125 44.371094 96.644531 45.132812 L 95.519531 45.527344 L 84.492188 38.886719 L 73.488281 32.246094 L 74.222656 31.007812 C 74.839844 29.996094 75.066406 29.796875 75.542969 29.96875 C 75.851562 30.078125 76.527344 30.164062 77.0625 30.164062 C 79.058594 30.136719 80.382812 27.292969 79.199219 25.632812 C 78.835938 25.101562 61.980469 14.773438 59.167969 13.339844 C 58.269531 12.890625 58.070312 12.859375 56.917969 13.085938 Z M 65.808594 24.199219 C 67.917969 25.4375 69.691406 26.535156 69.746094 26.5625 C 69.917969 26.703125 57.902344 46.652344 57.707031 46.539062 C 56.496094 45.921875 49.800781 41.785156 49.800781 41.671875 C 49.800781 41.53125 60.96875 22.792969 61.417969 22.230469 C 61.558594 22.0625 61.757812 21.890625 61.8125 21.890625 C 61.898438 21.890625 63.671875 22.933594 65.808594 24.199219 Z M 91.074219 52.871094 C 89.722656 54.953125 89.609375 55.0625 89.078125 54.699219 C 88.738281 54.5 83.871094 51.574219 78.214844 48.199219 C 72.5625 44.824219 67.890625 42.007812 67.835938 41.980469 C 67.777344 41.925781 68.339844 40.882812 69.042969 39.644531 L 70.367188 37.421875 L 81.421875 44.035156 L 92.480469 50.675781 Z M 99.261719 54.78125 C 100.613281 55.796875 100.976562 56.894531 100.332031 58.160156 C 99.488281 59.789062 97.996094 60.015625 96.027344 58.863281 L 94.789062 58.128906 L 95.265625 57.398438 C 95.546875 56.976562 96.136719 56.046875 96.589844 55.289062 C 97.066406 54.558594 97.574219 53.964844 97.769531 53.964844 C 97.96875 53.964844 98.613281 54.332031 99.261719 54.78125 Z M 46.957031 75.882812 C 46.3125 76.53125 46.140625 76.953125 46.140625 77.882812 C 46.140625 78.808594 46.3125 79.230469 46.957031 79.878906 L 47.773438 80.695312 L 100.21875 80.695312 L 101.035156 79.878906 C 102.1875 78.726562 102.1875 77.039062 101.035156 75.882812 L 100.21875 75.066406 L 47.773438 75.066406 Z M 46.957031 87.984375 C 46.3125 88.628906 46.140625 89.050781 46.140625 89.980469 C 46.140625 90.910156 46.3125 91.332031 46.957031 91.976562 L 47.773438 92.792969 L 100.21875 92.792969 L 101.035156 91.976562 C 102.1875 90.824219 102.1875 89.136719 101.035156 87.984375 L 100.21875 87.167969 L 47.773438 87.167969 Z M 76.5 113.304688 C 74.839844 114.992188 75.742188 117.835938 78.074219 118.285156 C 79.171875 118.480469 80.578125 117.835938 81.058594 116.933594 C 81.226562 116.597656 81.394531 115.808594 81.394531 115.1875 C 81.394531 112.742188 78.273438 111.53125 76.5 113.304688 Z M 76.5 113.304688 "/>
</g>
</svg>
